<svg id="Icons" xmlns="http://www.w3.org/2000/svg" viewBox="0 0 512 512"><defs><style>.cls-1{fill:#b82065;}.cls-2{fill:#d7156f;}.cls-3{fill:#4fcae8;}.cls-4{fill:#83d5ef;}.cls-5{fill:#cde6f6;}.cls-6{fill:#098955;}.cls-7{fill:#14a36d;}.cls-8{fill:#51c441;}.cls-9{fill:#65e856;}.cls-10{fill:#92f784;}.cls-11{fill:#cfffc7;}.cls-12{fill:#15be79;}.cls-13{fill:#27e090;}.cls-14{fill:#efb732;}.cls-15{fill:#fbdb58;}.cls-16{fill:#f9eaa5;}.cls-17{fill:#fff;}</style></defs><title>019-beer-export</title><circle class="cls-1" cx="256" cy="256" r="255.98"/><path class="cls-2" d="M0,255.76A255.63,255.63,0,0,1,103.44,50.44c113.54-84.25,273.87-60.52,358.12,53a254.76,254.76,0,0,1,49.93,136,76.89,76.89,0,0,0-14.24,6.88c-23.84,14.74-42,41.9-69.91,44.44-19.15,1.75-37.29-9.24-51.1-22.62s-24.87-29.51-39.4-42.12a112.53,112.53,0,0,0-157.7,10c-14.17,15.89-26.53,37.44-47.68,40-28.75,3.44-51.22-31.63-80-28.95-9.3.87-17.72,5.66-26.73,8A54.5,54.5,0,0,1,0,255.76Z"/><path class="cls-3" d="M422,360.25a50.62,50.62,0,0,1-14.37,2,51.32,51.32,0,0,1-49.29-65.66L402,180.47A6,6,0,0,1,412.35,179a5.88,5.88,0,0,1,.84,1.52L456.9,296.63A51.33,51.33,0,0,1,422,360.25Z"/><path class="cls-4" d="M422,360.25a51.39,51.39,0,0,1-38-56.75l26.39-121.27a6,6,0,0,1,1.94-3.28,5.88,5.88,0,0,1,.84,1.52L456.9,296.63A51.33,51.33,0,0,1,422,360.25Z"/><ellipse class="cls-5" cx="420.98" cy="265.78" rx="12.73" ry="22.83" transform="translate(-31.32 57.73) rotate(-7.56)"/><ellipse class="cls-5" cx="427.48" cy="314.73" rx="8.28" ry="14.4" transform="matrix(0.99, -0.13, 0.13, 0.99, -37.71, 59.01)"/><path class="cls-6" d="M103.57,352.33H89.18a4.21,4.21,0,0,1-.62,0,4.1,4.1,0,0,1-3.3-5.2L91,327.43h10.76l1.52,5.22,4.22,14.44A4.09,4.09,0,0,1,103.57,352.33Z"/><path class="cls-7" d="M103.57,352.33H89.18a4.21,4.21,0,0,1-.62,0l4.71-16.12a4.9,4.9,0,0,1,4.7-3.52h5.31l4.22,14.44A4.09,4.09,0,0,1,103.57,352.33Z"/><path class="cls-8" d="M107.69,285.08l-11.41,11.4-11.4-11.4a61.6,61.6,0,0,1,0-87.12l11.4-11.4,6.12,6.11,5.29,5.29A61.6,61.6,0,0,1,107.69,285.08Z"/><path class="cls-9" d="M107.69,285.08l-.73.73-.88-.56a61.61,61.61,0,0,1-18.52-85.13l8.72-13.56,6.12,6.11,5.29,5.29A61.6,61.6,0,0,1,107.69,285.08Z"/><ellipse class="cls-10" cx="105.07" cy="212.05" rx="6.47" ry="11.06" transform="translate(-49.84 33.14) rotate(-14.53)"/><path class="cls-9" d="M99.75,301.14l-2.82,10.52-.65,2.4L83.37,310.6a51.07,51.07,0,0,1-36.1-62.54l3.46-12.91,8.94,2.39,4,1.07A51.07,51.07,0,0,1,99.75,301.14Z"/><path class="cls-10" d="M99.75,301.14l-2.82,10.52-4-1.06a51.06,51.06,0,0,1-36.1-62.54l2.82-10.52,4,1.07A51.07,51.07,0,0,1,99.75,301.14Z"/><ellipse class="cls-11" cx="75.62" cy="256.01" rx="6.25" ry="11.62" transform="translate(-171.47 154.98) rotate(-51.31)"/><path class="cls-8" d="M92.82,301.15l2.82,10.52.64,2.39,12.92-3.46a51.07,51.07,0,0,0,36.1-62.54l-3.46-12.91-8.94,2.4-4,1.06A51.07,51.07,0,0,0,92.82,301.15Z"/><path class="cls-9" d="M92.82,301.15l2.82,10.52,4-1.07a51.06,51.06,0,0,0,36.1-62.54l-2.82-10.51-4,1.06A51.07,51.07,0,0,0,92.82,301.15Z"/><ellipse class="cls-10" cx="116.95" cy="256.01" rx="11.62" ry="6.25" transform="matrix(0.78, -0.63, 0.63, 0.78, -134.38, 129.31)"/><path class="cls-9" d="M105.74,304.61l-9.46,9.45-9.45-9.45a51.06,51.06,0,0,1,0-72.21L96.28,223l5.07,5.06,4.39,4.39A51.06,51.06,0,0,1,105.74,304.61Z"/><path class="cls-10" d="M105.74,304.61l-.61.6-.72-.46a51.07,51.07,0,0,1-15.36-70.56L96.28,223l5.07,5.06,4.39,4.39A51.06,51.06,0,0,1,105.74,304.61Z"/><ellipse class="cls-11" cx="103.56" cy="244.07" rx="5.37" ry="9.16" transform="translate(-57.92 33.79) rotate(-14.53)"/><path class="cls-6" d="M96.28,314.06v13.37H82.92a51.06,51.06,0,0,1-51.06-51.06V263H45.23A51.05,51.05,0,0,1,96.28,314.06Z"/><path class="cls-7" d="M96.28,314.06v13.37H92.35a51.06,51.06,0,0,1-51.06-51.06V263h3.94A51.05,51.05,0,0,1,96.28,314.06Z"/><ellipse class="cls-12" cx="62.3" cy="278.85" rx="7.24" ry="13.06" transform="translate(-202.87 172.43) rotate(-55.54)"/><ellipse class="cls-12" cx="79.64" cy="298.23" rx="4" ry="9.4" transform="translate(-138.44 79.78) rotate(-30)"/><path class="cls-7" d="M96.28,314.06v13.37h13.37a51.06,51.06,0,0,0,51.06-51.06V263H147.34A51.06,51.06,0,0,0,96.28,314.06Z"/><path class="cls-12" d="M96.28,314.06v13.37h3.94a51.06,51.06,0,0,0,51.06-51.06V263h-3.94A51.06,51.06,0,0,0,96.28,314.06Z"/><ellipse class="cls-13" cx="130.27" cy="278.85" rx="13.06" ry="7.24" transform="translate(-134.92 122.65) rotate(-34.46)"/><ellipse class="cls-13" cx="112.93" cy="298.23" rx="9.4" ry="4" transform="translate(-201.81 246.91) rotate(-60)"/><path class="cls-14" d="M263,123.21V418.32a4,4,0,0,1-1.18,2.84,3.9,3.9,0,0,1-.9.67,4,4,0,0,1-1.94.5,4,4,0,0,1-4-4V123.21a4,4,0,0,1,4-4,4.08,4.08,0,0,1,1.94.5A4,4,0,0,1,263,123.21Z"/><path class="cls-15" d="M263,123.21V418.32a4,4,0,0,1-1.18,2.84,3.9,3.9,0,0,1-.9.67,4,4,0,0,1-2.08-3.51V123.21a4,4,0,0,1,2.08-3.51A4,4,0,0,1,263,123.21Z"/><path class="cls-14" d="M249.76,224.38v12.1a1.16,1.16,0,0,1-1.82,1c-11.21-7.8-33.44.19-34.44-40a1.16,1.16,0,0,1,2-.85l1,1,8,8a15.57,15.57,0,0,0,11,4.56,14.24,14.24,0,0,1,14.24,14.25Z"/><path class="cls-15" d="M249.76,224.38v6.29c-10.77-6.5-30.19-1-33.24-33.1l8,8a15.57,15.57,0,0,0,11,4.56,14.24,14.24,0,0,1,14.24,14.25Z"/><ellipse class="cls-16" cx="231.35" cy="214.64" rx="3.69" ry="5.98" transform="matrix(0.28, -0.96, 0.96, 0.28, -39.16, 377.18)"/><ellipse class="cls-16" cx="242.34" cy="219.86" rx="2.57" ry="4.17" transform="translate(-79.8 277.23) rotate(-52.31)"/><path class="cls-14" d="M249.76,193.45v12.1a1.16,1.16,0,0,1-1.82,1c-11.21-7.79-33.44.19-34.44-40a1.16,1.16,0,0,1,2-.85l1,1,8,8a15.57,15.57,0,0,0,11,4.56,14.24,14.24,0,0,1,14.24,14.25Z"/><path class="cls-15" d="M249.76,193.45v6.29c-10.77-6.5-30.19-1-33.24-33.09l8,8a15.57,15.57,0,0,0,11,4.56,14.24,14.24,0,0,1,14.24,14.25Z"/><ellipse class="cls-16" cx="231.35" cy="183.71" rx="3.69" ry="5.98" transform="translate(-9.45 354.85) rotate(-73.85)"/><ellipse class="cls-16" cx="242.34" cy="188.94" rx="2.57" ry="4.17" transform="translate(-55.33 265.21) rotate(-52.31)"/><path class="cls-14" d="M249.76,162.52v12.1a1.16,1.16,0,0,1-1.82,1c-11.21-7.79-33.44.19-34.44-40a1.16,1.16,0,0,1,2-.85l1,1,8,8a15.57,15.57,0,0,0,11,4.56,14.25,14.25,0,0,1,14.24,14.25Z"/><path class="cls-15" d="M249.76,162.52v6.29c-10.77-6.5-30.19-1-33.24-33.09l8,8a15.57,15.57,0,0,0,11,4.56,14.25,14.25,0,0,1,14.24,14.25Z"/><ellipse class="cls-16" cx="231.35" cy="152.78" rx="3.69" ry="5.98" transform="translate(20.26 332.52) rotate(-73.85)"/><ellipse class="cls-16" cx="242.34" cy="158.01" rx="2.57" ry="4.17" transform="translate(-30.85 253.19) rotate(-52.31)"/><path class="cls-14" d="M249.76,131.59v12.1a1.16,1.16,0,0,1-1.82,1c-11.21-7.79-33.44.2-34.44-40a1.17,1.17,0,0,1,2-.85l1,1,8,8a15.57,15.57,0,0,0,11,4.56,14.24,14.24,0,0,1,14.24,14.24Z"/><path class="cls-15" d="M249.76,131.59v6.29c-10.77-6.5-30.19-1-33.24-33.09l8,8a15.57,15.57,0,0,0,11,4.56,14.24,14.24,0,0,1,14.24,14.24Z"/><ellipse class="cls-16" cx="231.35" cy="121.85" rx="3.69" ry="5.98" transform="translate(49.97 310.19) rotate(-73.85)"/><ellipse class="cls-16" cx="242.34" cy="127.08" rx="2.57" ry="4.17" transform="translate(-6.38 241.17) rotate(-52.31)"/><path class="cls-14" d="M254.27,104.69l-1.06,12.06a1.16,1.16,0,0,1-1.9.79c-10.48-8.74-33.33-2.72-30.82-42.89a1.17,1.17,0,0,1,2.06-.67l.93,1.11,7.27,8.67a15.56,15.56,0,0,0,10.56,5.5,14.24,14.24,0,0,1,13,15.43Z"/><path class="cls-15" d="M254.27,104.69l-.55,6.27c-10.17-7.42-30-3.6-30.24-35.87l7.27,8.67a15.56,15.56,0,0,0,10.56,5.5,14.24,14.24,0,0,1,13,15.43Z"/><ellipse class="cls-16" cx="236.77" cy="93.39" rx="3.69" ry="5.98" transform="translate(64.26 280.53) rotate(-68.85)"/><ellipse class="cls-16" cx="247.26" cy="99.55" rx="2.57" ry="4.17" transform="translate(6.45 213.82) rotate(-47.31)"/><path class="cls-14" d="M268.24,224.38v12.1a1.16,1.16,0,0,0,1.82,1c11.21-7.8,33.44.19,34.44-40a1.16,1.16,0,0,0-2-.85l-1,1-8,8a15.57,15.57,0,0,1-11,4.56,14.24,14.24,0,0,0-14.24,14.25Z"/><path class="cls-15" d="M268.24,224.38v6.29c10.77-6.5,30.19-1,33.24-33.1l-8,8a15.57,15.57,0,0,1-11,4.56,14.24,14.24,0,0,0-14.24,14.25Z"/><ellipse class="cls-16" cx="286.65" cy="214.64" rx="5.98" ry="3.69" transform="translate(-48.38 88.18) rotate(-16.15)"/><ellipse class="cls-16" cx="275.66" cy="219.86" rx="4.17" ry="2.57" transform="translate(-76.9 214.39) rotate(-37.69)"/><path class="cls-14" d="M268.24,193.45v12.1a1.16,1.16,0,0,0,1.82,1c11.21-7.79,33.44.19,34.44-40a1.16,1.16,0,0,0-2-.85l-1,1-8,8a15.57,15.57,0,0,1-11,4.56,14.24,14.24,0,0,0-14.24,14.25Z"/><path class="cls-15" d="M268.24,193.45v6.29c10.77-6.5,30.19-1,33.24-33.09l-8,8a15.57,15.57,0,0,1-11,4.56,14.24,14.24,0,0,0-14.24,14.25Z"/><ellipse class="cls-16" cx="286.65" cy="183.71" rx="5.98" ry="3.69" transform="translate(-39.78 86.96) rotate(-16.15)"/><ellipse class="cls-16" cx="275.66" cy="188.94" rx="4.17" ry="2.57" transform="translate(-57.99 207.94) rotate(-37.69)"/><path class="cls-14" d="M268.24,162.52v12.1a1.16,1.16,0,0,0,1.82,1c11.21-7.79,33.44.19,34.44-40a1.16,1.16,0,0,0-2-.85l-1,1-8,8a15.57,15.57,0,0,1-11,4.56,14.25,14.25,0,0,0-14.24,14.25Z"/><path class="cls-15" d="M268.24,162.52v6.29c10.77-6.5,30.19-1,33.24-33.09l-8,8a15.57,15.57,0,0,1-11,4.56,14.25,14.25,0,0,0-14.24,14.25Z"/><ellipse class="cls-16" cx="286.65" cy="152.78" rx="5.98" ry="3.69" transform="translate(-31.18 85.74) rotate(-16.15)"/><ellipse class="cls-16" cx="275.66" cy="158.01" rx="4.17" ry="2.57" transform="translate(-39.09 201.49) rotate(-37.69)"/><path class="cls-14" d="M268.24,131.59v12.1a1.16,1.16,0,0,0,1.82,1c11.21-7.79,33.44.2,34.44-40a1.17,1.17,0,0,0-2-.85l-1,1-8,8a15.57,15.57,0,0,1-11,4.56,14.24,14.24,0,0,0-14.24,14.24Z"/><path class="cls-15" d="M268.24,131.59v6.29c10.77-6.5,30.19-1,33.24-33.09l-8,8a15.57,15.57,0,0,1-11,4.56,14.24,14.24,0,0,0-14.24,14.24Z"/><ellipse class="cls-16" cx="286.65" cy="121.85" rx="5.98" ry="3.69" transform="translate(-22.58 84.52) rotate(-16.15)"/><ellipse class="cls-16" cx="275.66" cy="127.08" rx="4.17" ry="2.57" transform="translate(-20.18 195.03) rotate(-37.69)"/><path class="cls-14" d="M263.73,104.69l1.06,12.06a1.16,1.16,0,0,0,1.9.79c10.48-8.74,33.33-2.72,30.82-42.89a1.17,1.17,0,0,0-2.06-.67l-.93,1.11-7.27,8.67a15.56,15.56,0,0,1-10.56,5.5,14.24,14.24,0,0,0-13,15.43Z"/><path class="cls-15" d="M263.73,104.69l.55,6.27c10.17-7.42,30-3.6,30.24-35.87l-7.27,8.67a15.56,15.56,0,0,1-10.56,5.5,14.24,14.24,0,0,0-13,15.43Z"/><ellipse class="cls-16" cx="281.23" cy="93.39" rx="5.98" ry="3.69" transform="translate(-14.75 107.74) rotate(-21.15)"/><ellipse class="cls-16" cx="270.74" cy="99.55" rx="4.17" ry="2.57" transform="translate(4.23 209.93) rotate(-42.69)"/><path class="cls-14" d="M256.78,78.11,253.64,89.8a1.16,1.16,0,0,1-2,.45c-8.8-10.42-32.34-8.47-22.9-47.59a1.16,1.16,0,0,1,2.14-.3l.73,1.26,5.65,9.79a15.62,15.62,0,0,0,9.45,7.25,14.26,14.26,0,0,1,10.08,17.45Z"/><path class="cls-15" d="M256.78,78.11l-1.63,6.08c-8.73-9.07-28.92-8.76-23.55-40.57l5.65,9.79a15.62,15.62,0,0,0,9.45,7.25,14.26,14.26,0,0,1,10.08,17.45Z"/><ellipse class="cls-16" cx="241.51" cy="63.94" rx="3.69" ry="5.98" transform="translate(61.88 237.57) rotate(-58.85)"/><ellipse class="cls-16" cx="250.77" cy="71.83" rx="2.57" ry="4.17" transform="translate(7.79 166.72) rotate(-37.31)"/><path class="cls-14" d="M261.22,78.11l3.14,11.69a1.16,1.16,0,0,0,2,.45c8.8-10.42,32.34-8.47,22.9-47.59a1.16,1.16,0,0,0-2.14-.3l-.73,1.26-5.65,9.79a15.62,15.62,0,0,1-9.45,7.25,14.26,14.26,0,0,0-10.08,17.45Z"/><path class="cls-15" d="M261.22,78.11l1.63,6.08c8.73-9.07,28.92-8.76,23.55-40.57l-5.65,9.79a15.62,15.62,0,0,1-9.45,7.25,14.26,14.26,0,0,0-10.08,17.45Z"/><ellipse class="cls-16" cx="276.49" cy="63.94" rx="5.98" ry="3.69" transform="translate(6.79 152.22) rotate(-31.15)"/><ellipse class="cls-16" cx="267.23" cy="71.83" rx="4.17" ry="2.57" transform="translate(48.11 240.82) rotate(-52.69)"/><path class="cls-17" d="M235.94,283.56c3.57,3.5,1.05,10.27-4.18,10H211.08v20.55a5.84,5.84,0,1,1-11.67,0V293.58H178.72a5.84,5.84,0,0,1,0-11.67h20.69V261.22a5.84,5.84,0,0,1,11.67,0v20.69h20.68A5.69,5.69,0,0,1,235.94,283.56Z"/><path class="cls-17" d="M343.44,283.56c3.58,3.5,1.05,10.27-4.18,10H318.58v20.55a5.84,5.84,0,1,1-11.67,0V293.58H286.23a5.84,5.84,0,1,1,0-11.67h20.68V261.22a5.84,5.84,0,0,1,11.67,0v20.69h20.68A5.69,5.69,0,0,1,343.44,283.56Z"/></svg>